<svg xmlns="http://www.w3.org/2000/svg" xml:space="preserve" viewBox="0 0 512 512">
  <path d="M478.149 276.643c-18.206-18.204-44.632-32.842-67.956-45.759-8.021-4.442-16.24-9-23.237-13.266 0-.09.007-.181.007-.27 0-9.908-3.839-19.2-10.807-26.168l-20.782-20.781 26.576-26.576 11.913 22.822c1.685 3.228 5.02 5.232 8.63 5.232.199 0 .4-.006.6-.018 3.836-.236 7.174-2.706 8.522-6.306l31.531-84.163c1.339-3.575.466-7.603-2.233-10.304-2.7-2.698-6.729-3.57-10.304-2.234l-84.164 31.531c-3.598 1.348-6.069 4.686-6.305 8.524-.235 3.836 1.808 7.452 5.215 9.23l22.817 11.91-26.575 26.575-20.781-20.781c-6.968-6.968-16.262-10.805-26.17-10.805-.09 0-.178.005-.268.006-4.275-7.008-8.831-15.227-13.28-23.263-12.911-23.309-27.546-49.729-45.745-67.93C205.014 3.512 169.226-6.503 128.99 4.09c-31.93 8.4-64.034 28.85-98.052 50.519l-.84.535c-5.383 3.43-10.855 6.913-16.432 10.414C.028 74.131-4.1 92.2 4.466 105.836c8.567 13.64 26.637 17.771 40.282 9.208.573-.36 1.132-.717 1.702-1.075l168.903 168.902-51.989 51.99-62.521-.452c-2.597.03-5.114 1.009-6.956 2.852l-69.773 69.775c-2.776 2.778-3.614 6.95-2.124 10.581 1.489 3.633 5.015 6.016 8.94 6.045l56.995.413.414 56.997c.029 3.926 2.411 7.451 6.045 8.941 1.195.49 2.449.728 3.692.728a9.747 9.747 0 0 0 6.889-2.852l69.773-69.775a9.7454 9.7454 0 0 0 2.853-6.958l-.453-62.521 51.99-51.99L398.033 465.55c-.36.571-.718 1.131-1.078 1.705-8.564 13.645-4.431 31.713 9.209 40.28 4.815 3.023 10.181 4.464 15.486 4.464 9.725 0 19.248-4.845 24.797-13.672 3.496-5.571 6.981-11.043 10.41-16.425l.538-.843c21.658-33.997 42.116-66.109 50.517-98.045 10.591-40.241.578-76.028-29.763-106.371zM417.397 94.605l-16.364 43.68-7.952-15.233-.001-.003c-.174-.332-.371-.654-.586-.969-.058-.084-.123-.165-.184-.248a9.755 9.755 0 0 0-.505-.639c-.084-.096-.17-.19-.257-.284-.074-.079-.139-.162-.217-.24-.112-.112-.232-.209-.348-.313-.084-.078-.166-.157-.255-.231-.282-.239-.57-.461-.871-.664-.004-.004-.008-.006-.012-.009 0 0-.001 0-.003-.001-.299-.2-.608-.382-.923-.544l-15.203-7.937 43.681-16.365zM93.586 404.64l-39.246-.286 50.436-50.437 39.247.283-15.307 15.307-35.13 35.133zm14.061 53.019-.286-39.247 50.438-50.438.284 39.249-50.436 50.436zm268.508-214.143c2.002-2.002 3.736-4.199 5.205-6.545 6.171 3.626 12.854 7.329 19.403 10.955 19.141 10.603 40.472 22.428 56.415 35.915l-13.832 13.83c-14.354-11.825-34.165-22.813-52.024-32.705l-.12-.066c-8.194-4.54-16.102-8.922-23.219-13.21l8.172-8.174zm-34.553-59.345 20.782 20.782c3.289 3.289 5.102 7.691 5.102 12.395 0 4.703-1.813 9.105-5.103 12.396l-8.904 8.905c-3.289 3.291-7.691 5.102-12.395 5.102-4.705 0-9.108-1.811-12.397-5.102l-20.781-20.781 33.696-33.697zm-59.342-34.555c3.287-3.289 7.687-5.101 12.391-5.101 4.705 0 9.108 1.813 12.397 5.102l20.781 20.781-33.696 33.696-20.779-20.779c-6.836-6.837-6.836-17.958-.001-24.793l8.907-8.906zm-18.184-38.375c3.623 6.543 7.324 13.224 10.953 19.399-2.345 1.469-4.542 3.202-6.543 5.203l-8.174 8.173c-4.306-7.148-8.716-15.109-13.306-23.395-9.868-17.815-20.853-37.618-32.675-51.97l13.83-13.83c13.481 15.942 25.306 37.268 35.915 56.42zm-49.633-70.247-13.83 13.83c-14.902-12.362-30.403-17.359-48.372-15.528l-4.258-19.137c24.811-3.213 46.351 3.554 66.46 20.835zM50.939 88.058C45.515 91.512 40 95.025 34.389 98.549c-4.549 2.853-10.574 1.478-13.431-3.072-2.854-4.544-1.475-10.569 3.068-13.424 5.607-3.52 11.116-7.028 16.534-10.478l.87-.555c30.805-19.624 59.997-38.21 87.532-46.662l4.246 19.08c-24.487 7.819-50.993 24.692-81.34 44.027l-.929.593zm12.366 15.219c30.924-19.702 57.672-36.655 80.555-42.678 20.285-5.336 34.354-1.253 50.178 14.574 12.38 12.379 24.891 34.963 35.981 54.987 6.686 12.073 13.047 23.549 19.504 33.267-2.419 11.788.927 24.535 10.053 33.662l20.779 20.779-51.23 51.232-165.82-165.823zm179.596 179.594 51.23-51.23 20.782 20.782c6.969 6.968 16.263 10.805 26.17 10.805h.001c2.548 0 5.053-.258 7.49-.753 9.699 6.445 21.147 12.791 33.188 19.461l.171.095c19.929 11.038 42.516 23.548 54.896 35.932 15.825 15.82 19.911 29.889 14.575 50.175-6.021 22.875-22.976 49.63-42.679 80.558L242.901 282.871zm198.061 187.728-.535.839c-3.45 5.419-6.958 10.926-10.474 16.529-2.858 4.549-8.882 5.927-13.43 3.072-4.548-2.856-5.925-8.879-3.072-13.424 3.728-5.934 7.439-11.762 11.084-17.484 19.337-30.352 36.211-56.859 44.029-81.341l19.08 4.246c-8.456 27.542-27.048 56.744-46.682 87.563zm50.882-106.582-19.135-4.257c1.83-17.971-3.168-33.471-15.531-48.371l13.831-13.83c17.277 20.107 24.043 41.646 20.835 66.458z"/>
</svg>
