<svg xmlns="http://www.w3.org/2000/svg" xml:space="preserve" viewBox="0 0 496 496">
  <path d="M486.85 105.304c-7.492-21.728-19.888-42.116-37.192-59.432C420.074 16.292 380.743 0 338.907 0s-81.168 16.292-110.748 45.872c-26.968 26.976-42.012 61.412-45.152 96.72-3.272 35.096 5.224 71.092 25.472 101.52l-2.584 2.572c-5.184 5.188-7.892 11.904-8.184 18.708-.28 3.916.264 7.864 1.592 11.604l-29.108 29.1-3.368-3.364c-1.484-1.484-3.864-1.512-5.392-.084L8.899 446.128c-4.228 4.236-6.848 9.456-7.872 14.932-2.064 9.26.472 19.348 7.664 26.54 5.416 5.42 12.608 8.4 20.264 8.4s14.852-2.98 20.348-8.484L192.831 334.92c.78-.824 1.084-1.908 1-2.964.16-1.156-.144-2.368-1.032-3.256l-2.984-2.98 28.912-28.904c3.248 1.24 6.68 1.88 10.116 1.88 7.244 0 14.488-2.756 20-8.268l2.864-2.868c25.6 17.232 55.728 26.5 87.284 26.5 41.868 0 81.236-16.304 110.844-45.912 43.955-43.956 56.296-107.748 37.015-162.844zm-262.399 80.648c-9.656-38.908.676-81.804 31.02-112.152 22.312-22.308 51.976-34.592 83.528-34.592 31.544 0 61.2 12.288 83.504 34.584 11.756 11.756 20.488 25.404 26.244 39.964l-32.156 12.232c-3.492-3.548-8.332-5.752-13.692-5.752-10.616 0-19.248 8.632-19.248 19.244 0 2.02.4 3.924.972 5.752l-35.472 30.98c-2.436-1.12-5.12-1.776-7.972-1.776-5.4 0-10.264 2.248-13.756 5.836l-40.672-14.916c-.64-10.032-8.928-18.016-19.12-18.016-10.608 0-19.248 8.632-19.248 19.244 0 1.096.148 2.148.324 3.196l-24.256 16.172zm198.048 54.864c-22.312 22.304-51.968 34.592-83.512 34.592-31.552 0-61.208-12.288-83.52-34.592-11.644-11.644-20.332-25.148-26.088-39.552l27.832-18.556c3.008 1.952 6.58 3.108 10.416 3.108 5.436 0 10.328-2.284 13.828-5.916l40.592 14.888c.596 10.084 8.904 18.124 19.128 18.124 10.616 0 19.248-8.636 19.248-19.244 0-2.064-.412-4.008-1.016-5.868l35.412-30.924c2.472 1.148 5.188 1.836 8.084 1.836 10.264 0 18.604-8.104 19.144-18.244l31.436-11.956c9.724 38.948-.596 81.908-30.984 112.304z"/>
</svg>
