<svg xmlns="http://www.w3.org/2000/svg" xml:space="preserve" viewBox="0 0 103.696 103.696">
  <path d="M69.53 56.152H34.168c-4.687 0-8.486 3.8-8.486 8.486v9.752c0 4.687 3.799 8.485 8.486 8.485H69.53c4.688 0 8.486-3.8 8.486-8.485v-9.752c0-4.686-3.799-8.486-8.486-8.486zM37.773 79.573h-5.322c-1.297-.938-2.271-2.293-2.725-3.872v-4.176h8.047v8.048zm0-12.069h-8.047v-4.176c.454-1.578 1.428-2.934 2.725-3.872h5.322v8.048zm12.058 12.069h-8.033v-8.046h8.033v8.046zm0-12.069h-8.033v-8.048h8.033v8.048zm12.07 12.069h-8.033v-8.046h8.033v8.046zm0-12.069h-8.033v-8.048h8.033v8.048zm12.07 8.197c-.453 1.578-1.428 2.934-2.725 3.872h-5.322v-8.046h8.047v4.174zm0-8.197h-8.047v-8.048h5.322c1.297.938 2.271 2.294 2.725 3.872v4.176zM27.204 35.436c-1.229-1.229-1.229-3.222 0-4.451s3.222-1.229 4.451 0l9.456 9.455c.014.014.023.031.038.046 1.16 1.127 1.884 2.701 1.884 4.446 0 3.426-2.777 6.203-6.2 6.203s-6.201-2.777-6.201-6.203c0-1.678.67-3.198 1.754-4.315l-5.182-5.181zm33.46 9.497c0-1.745.724-3.319 1.884-4.446.014-.015.023-.032.038-.046l9.456-9.455c1.229-1.229 3.223-1.229 4.451 0s1.229 3.222-.001 4.451l-5.181 5.182c1.082 1.117 1.752 2.637 1.752 4.315 0 3.426-2.776 6.203-6.199 6.203-3.424 0-6.2-2.778-6.2-6.204zm24.803 58.763H18.23C8.179 103.696 0 95.518 0 85.467V18.23C0 8.178 8.179 0 18.23 0h67.235c10.053 0 18.23 8.178 18.23 18.23v67.235c.002 10.053-8.177 18.231-18.228 18.231zM18.23 8.579c-5.321 0-9.651 4.33-9.651 9.651v67.235c0 5.321 4.33 9.651 9.651 9.651h67.235c5.321 0 9.651-4.33 9.651-9.651V18.23c0-5.321-4.33-9.651-9.651-9.651H18.23z"/>
</svg>
