<svg xmlns="http://www.w3.org/2000/svg" xml:space="preserve" viewBox="0 0 288.519 288.519">
  <path d="M266.019 64.587H198.56V17.125c0-4.694-3.806-8.5-8.5-8.5H98.456c-4.694 0-8.5 3.806-8.5 8.5v47.462H22.5C10.093 64.587 0 74.68 0 87.087v170.306c0 12.407 10.093 22.5 22.5 22.5h243.519c12.407 0 22.5-10.093 22.5-22.5V87.087c0-12.406-10.094-22.5-22.5-22.5zM181.56 25.625v5.979h-74.604v-5.979h74.604zm-74.604 22.979h74.604v15.984h-74.604V48.604zm164.563 208.791c0 3.033-2.467 5.5-5.5 5.5H22.5c-3.033 0-5.5-2.467-5.5-5.5V87.087c0-3.033 2.467-5.5 5.5-5.5h243.519c3.033 0 5.5 2.467 5.5 5.5v170.308z"/>
  <path d="M218.262 109.353H70.257c-9.379 0-17.009 7.258-17.009 16.179v93.417c0 8.921 7.63 16.179 17.009 16.179h148.005c9.379 0 17.009-7.258 17.009-16.179v-93.417c0-8.922-7.63-16.179-17.009-16.179zm.009 108.775H70.248v-91.776H218.271v91.776z"/>
  <path d="M152.759 141.809h-17v21.931h-21.931v17h21.931v21.931h17V180.74h21.931v-17h-21.931z"/>
</svg>
