<svg xmlns="http://www.w3.org/2000/svg" xml:space="preserve" viewBox="0 0 512.173 512.173">
  <path d="M287.481 122.021c-3.336-3.337-8.738-3.337-12.075 0-3.328 3.336-3.328 8.73 0 12.066l102.4 102.4c1.673 1.664 3.857 2.5 6.033 2.5 2.185 0 4.369-.836 6.042-2.5 3.328-3.337 3.328-8.73 0-12.066l-102.4-102.4zM51.355 401.121c-4.702 0-8.482 3.823-8.482 8.533s3.857 8.533 8.576 8.533c4.71 0 8.533-3.823 8.533-8.533s-3.823-8.533-8.533-8.533h-.094z"/>
  <path d="M502.196 174.97c-1.527-2.628-4.343-4.25-7.39-4.25l-14.95.085c-30.626 0-61.517-3.405-102.639-44.527l-36.727-36.65 17.886-17.792 30.566 30.558-2.517 2.475c-3.354 3.302-3.405 8.713-.102 12.066 1.673 1.698 3.883 2.551 6.084 2.551 2.159 0 4.326-.819 5.982-2.449l8.653-8.508c1.63-1.596 2.543-3.772 2.552-6.05.008-2.278-.888-4.463-2.5-6.067l-42.667-42.667c-3.328-3.32-8.721-3.328-12.049-.017L328.416 77.57 304.53 53.746c-2.287-2.287-5.658-3.072-8.738-2.048-1.118.375-27.657 9.481-54.366 36.19-26.701 26.701-35.951 53.368-36.335 54.494-1.041 3.072-.247 6.477 2.048 8.772l66.569 66.569L49.554 441.918c-1.749 1.741-2.628 1.92-2.62 1.929-.034-.009-.836-.179-2.415-1.758l-25.762-25.762c-1.391-1.391-1.69-2.244-1.698-2.398.009-.162.316-1.033 1.724-2.441l209.109-209.143c3.337-3.337 3.337-8.738 0-12.066-3.336-3.337-8.73-3.337-12.066 0L6.717 399.422c-8.943 8.943-8.96 20.045-.026 28.971l25.762 25.762c4.506 4.514 9.472 6.767 14.447 6.767 5.043 0 10.103-2.313 14.72-6.938l224.017-224.051c38.98 41.882 38.784 73.421 38.511 103.953l-.043 7.501c0 3.063 1.647 5.888 4.301 7.415.691.393 17.195 9.643 42.633 9.643 23.031 0 58.308-7.834 95.642-45.158 72.422-72.422 37.051-135.654 35.515-138.317zm-47.59 126.251c-26.65 26.65-54.767 40.158-83.567 40.166-13.747 0-24.286-3.26-29.833-5.461l.009-1.886c.29-32.205.666-72.286-49.408-122.351l-68.582-68.591c3.686-8.192 12.86-25.728 30.268-43.145 17.399-17.399 34.85-26.496 42.991-30.131l68.676 68.531c45.696 45.696 81.715 49.519 114.697 49.519l9.583-.051c5.81 14.046 18.474 60.092-34.834 113.4z"/>
</svg>
