<svg xmlns="http://www.w3.org/2000/svg" fill="none" viewBox="0 0 24 24" fill="currentColor">
  <path d="M6.2257 4.811c-.3906-.3906-1.0237-.3906-1.4143 0-.3905.3905-.3905 1.0236 0 1.4142l5.7748 5.7747-5.7747 5.7747c-.3905.3905-.3905 1.0237 0 1.4142.3905.3905 1.0237.3905 1.4142 0l5.7747-5.7747 5.7747 5.7747c.3905.3905 1.0237.3905 1.4142 0 .3905-.3905.3905-1.0237 0-1.4142l-5.7747-5.7747 5.7747-5.7747c.3906-.3906.3906-1.0237 0-1.4142-.3905-.3906-1.0236-.3906-1.4142 0l-5.7747 5.7747L6.2257 4.811Z"/>
</svg>
